<svg width="100%" height="100%" viewBox="0 0 110 110" xmlns="http://www.w3.org/2000/svg">
    <g shape-rendering="auto">
        <circle cx="55" cy="55" r="20" fill="#222222" fill-opacity=".7" />
        <circle cx="55" cy="55" r="20" fill="none" stroke="#222222" stroke-width="0.8" stroke-opacity=".6"/>

        <path d="m54.4707 3.3479471c-1.9143 0-3.4707 2.9e-6-3.4707 1.6032609v26.0c0 2.206414 1.5564 4.000313 3.4707 4.000313h1.0586c1.9143 0 3.4707-1.793899 3.4707-4.000313v-26.0c0-1.603258-1.5564-1.6032609-3.4707-1.6032609z" 
              fill="#000000" fill-opacity=".3"/>
        
        <path d="m54.65411 3.9496929h.69178c.921217 0 1.65411.6460176 1.65411 2.1569776v24.5c0 1.51107-.732909 2.71315-1.65411 2.71315h-.69178c-.921217 0-1.65411-1.20219-1.65411-2.71315v-24.5c0-1.51107.732909-2.1569776 1.65411-2.1569776z" 
              fill="#FFFFFF" stroke="#000000" stroke-width="0.5"/>

        <circle cx="55" cy="55" r="3.5" fill="#111111"/>
    </g>
</svg>
