<svg xmlns="http://www.w3.org/2000/svg" width="220" height="22" viewBox="0 0 220 22">
  <defs>
    <style>
      .cls-1 {
        fill: #00FF44;
        fill-rule: evenodd;
      }
    </style>
  </defs>
  
  <g transform="translate(8.75, 0)">
    
    <path id="Numarkered_Logo" class="cls-1" d="M40.6,5.732H34.376V16.251h-5.84V5.732H22.31V18.6a3.381,3.381,0,0,0,3.378,3.384l2.686,0.011H32.3A2.534,2.534,0,0,0,34.6,20.5a2.534,2.534,0,0,0,2.3,1.482h4.708V16.231H40.6V5.732ZM15.07,11.725L6.916,0H0V21.982H6.231V10.213l8.156,11.769H21.3V0H15.07V11.725Zm106.513,2.089,5.623-8.081h-7.819l-4.328,6.275h-0.7V0H108.13V21.982h6.231V15.613h0.7l4.406,6.368h7.819Zm-17.9-8.094H98.449A1.691,1.691,0,0,0,96.8,7.03v-1.3H90.58v16.25H96.8V10.95h4.057V13.81h6.224l-0.059-5.2A3.381,3.381,0,0,0,103.684,5.719Zm-15.108.013H82.35V7.2a1.689,1.689,0,0,0-1.675-1.475l-3.234.011H74.634a3.382,3.382,0,0,0-3.379,3.384v7.12H70.247l-1.057,0,0-5.494V9.054a3.381,3.381,0,0,0-3.377-3.385H60.86A2.532,2.532,0,0,0,58.688,6.9a2.529,2.529,0,0,0-2.13-1.163H50.74a2.525,2.525,0,0,0-1.893.852V5.732H42.623v16.25h6.224V10.945H52.9V21.982h6.224V10.834h4.057V18.6a3.381,3.381,0,0,0,3.378,3.384l2.683-.011h1.322a1.69,1.69,0,0,0,1.578-1.088,3.367,3.367,0,0,0,2.488,1.095L77.318,22h2.949a2.534,2.534,0,0,0,2.313-1.5,2.534,2.534,0,0,0,2.3,1.482h4.708V16.231H88.576V5.732ZM82.35,16.244h-4.87L77.5,10.926H82.35v5.318Z M 146,21.98 H 132.38 A 3.38,3.38 0 0 1 129,18.6 V 9.11 A 3.38,3.38 0 0 1 132.38,5.73 H 142.62 A 3.38,3.38 0 0 1 146,9.11 V 15.0 H 135.23 V 16.78 H 146 Z M 135.23,10.93 V 13.0 H 139.77 V 10.93 Z M 148,21.98 V 5.73 H 161.13 A 3.38,3.38 0 0 1 164.51,9.11 V 13.81 H 159.23 V 10.93 H 154.23 V 21.98 Z M 183.5,21.98 H 169.88 A 3.38,3.38 0 0 1 166.5,18.6 V 9.11 A 3.38,3.38 0 0 1 169.88,5.73 H 180.12 A 3.38,3.38 0 0 1 183.5,9.11 V 15.0 H 172.73 V 16.78 H 183.5 Z M 172.73,10.93 V 13.0 H 177.27 V 10.93 Z M 202.5,21.98 H 188.88 A 3.38,3.38 0 0 1 185.5,18.6 V 9.11 A 3.38,3.38 0 0 1 188.88,5.73 H 196.27 V 0 H 202.5 Z M 191.73,10.93 V 16.78 H 196.27 V 10.93 Z"/>
    
    </g>
</svg>
